<?xml version="1.0" standalone="no"?><!DOCTYPE svg PUBLIC "-//W3C//DTD SVG 1.1//EN" "http://www.w3.org/Graphics/SVG/1.1/DTD/svg11.dtd"><svg t="1721701947704" class="icon" viewBox="0 0 1316 1024" version="1.1" xmlns="http://www.w3.org/2000/svg" p-id="52627" xmlns:xlink="http://www.w3.org/1999/xlink" width="41.125" height="32"><path d="M1243.428571 182.857143a73.142857 73.142857 0 0 1 73.142858 73.142857v512a73.142857 73.142857 0 0 1-73.142858 73.142857H109.714286a73.142857 73.142857 0 0 1-73.142857-73.142857V256a73.142857 73.142857 0 0 1 73.142857-73.142857h1133.714285z m0 51.2H109.714286a21.942857 21.942857 0 0 0-21.650286 18.395428L87.771429 256v512a21.942857 21.942857 0 0 0 18.395428 21.650286L109.714286 789.942857h1133.714285a21.942857 21.942857 0 0 0 21.650286-18.395428L1265.371429 768V256a21.942857 21.942857 0 0 0-18.395429-21.650286L1243.428571 234.057143z" fill="#515151" p-id="52628"></path><path d="M1048.393143 585.142857l97.499428-146.285714H950.857143z" fill="#515151" p-id="52629"></path></svg>