<svg width="1024" height="1024" xmlns="http://www.w3.org/2000/svg" p-id="45352" version="1.1" class="icon" t="1721894687969">

 <g>
  <title>Layer 1</title>
  <g stroke="null" id="svg_6">
   <path stroke="null" id="svg_1" p-id="45353" fill="#C2C2C2" d="m123.2214,356.92193l470.78778,0l0,39.60746l-470.78778,0l0,-39.60746zm0,277.01969l470.78778,0l0,39.60746l-470.78778,0l0,-39.60746z"/>
   <path stroke="null" id="svg_2" p-id="45354" fill="#C2C2C2" d="m358.61529,160.03505l39.25792,0l0,712.46922l-39.25792,0l0,-712.46922z"/>
   <path stroke="null" id="svg_3" p-id="45355" fill="#409EFF" d="m731.3735,496.50468l0,-59.37243l39.25792,0l0,59.37243l58.84847,0l0,39.60746l-58.84847,0l0,59.37243l-39.25792,0l0,-59.37243l-58.84847,0l0,-39.60746l58.84847,0z"/>
   <path stroke="null" id="svg_4" p-id="45356" fill="#C2C2C2" d="m240.91834,120.42759l549.30362,0c64.99453,0 117.69694,53.17166 117.69694,118.74487l0,554.1944c0,65.57321 -52.70242,118.74487 -117.69694,118.74487l-549.30362,0c-64.99453,0 -117.69694,-53.17166 -117.69694,-118.74487l0,-554.1944c0,-65.57321 52.70242,-118.74487 117.69694,-118.74487zm0,39.60746c-43.32968,0 -78.43902,35.42194 -78.43902,79.13741l0,554.1944c0,43.71547 35.10934,79.13741 78.43902,79.13741l549.30362,0c43.32968,0 78.43902,-35.42194 78.43902,-79.13741l0,-554.1944c0,-43.71547 -35.10934,-79.13741 -78.43902,-79.13741l-549.30362,0z"/>
   <path stroke="null" id="svg_5" class="selected" data-spm-anchor-id="a313x.search_index.0.i14.1d263a816FEQr8" p-id="45357" fill="#409EFF" d="m594.00918,912.11172l0,-791.68414l196.13597,0c64.99453,0 117.69694,53.17166 117.69694,118.74487l0,554.1944c0,65.57321 -52.70242,118.74487 -117.69694,118.74487l-196.13597,0zm39.25792,-39.60746l156.95487,0c43.32968,0 78.43902,-35.42194 78.43902,-79.13741l0,-554.1944c0,-43.71547 -35.10934,-79.13741 -78.43902,-79.13741l-156.95487,0l0,712.46922z"/>
  </g>
 </g>
</svg>