<?xml version="1.0" standalone="no"?><!DOCTYPE svg PUBLIC "-//W3C//DTD SVG 1.1//EN" "http://www.w3.org/Graphics/SVG/1.1/DTD/svg11.dtd"><svg t="1721702225363" class="icon" viewBox="0 0 1024 1024" version="1.1" xmlns="http://www.w3.org/2000/svg" p-id="70527" xmlns:xlink="http://www.w3.org/1999/xlink" width="32" height="32"><path d="M509.312 61.952C260.768 61.952 59.264 263.424 59.264 512s201.472 450.048 450.048 450.048c248.544 0 450.016-201.472 450.016-450.048S757.824 61.952 509.312 61.952z m266.688 313.792l-317.12 320.448c-0.064 0.128-0.16 0.128-0.288 0.224-0.128 0.064-0.128 0.288-0.288 0.288-2.4 2.528-5.344 3.808-8.224 5.408-1.44 0.864-2.528 2.08-4.032 2.656a36.928 36.928 0 0 1-14.208 2.752c-4.896 0-9.792-0.864-14.4-2.88-1.504-0.704-2.72-1.888-4.16-2.72-2.816-1.568-5.824-3.04-8.224-5.472a0.64 0.64 0 0 1-0.16-0.288c-0.064-0.064-0.224-0.064-0.288-0.288L247.872 535.04a38.112 38.112 0 0 1 0.8-53.888 37.952 37.952 0 0 1 53.696 0.928l129.664 133.024 289.856-292.896a37.856 37.856 0 0 1 53.696-0.288c14.912 14.752 15.136 38.912 0.416 53.824z" p-id="70528" fill="#515151"></path></svg>