<?xml version="1.0" standalone="no"?><!DOCTYPE svg PUBLIC "-//W3C//DTD SVG 1.1//EN" "http://www.w3.org/Graphics/SVG/1.1/DTD/svg11.dtd"><svg t="1722394133588" class="icon" viewBox="0 0 1024 1024" version="1.1" xmlns="http://www.w3.org/2000/svg" p-id="31696" xmlns:xlink="http://www.w3.org/1999/xlink" width="32" height="32"><path d="M434.501818 701.672727a34.909091 34.909091 0 0 1-24.669091-10.24L256 536.669091a34.909091 34.909091 0 0 1 49.338182-49.338182l130.094545 130.094546 283.927273-284.858182A34.909091 34.909091 0 0 1 768 381.905455l-309.527273 309.527272a34.909091 34.909091 0 0 1-23.970909 10.24z" p-id="31697" fill="#707070"></path><path d="M512 1000.727273a488.727273 488.727273 0 1 1 488.727273-488.727273 488.727273 488.727273 0 0 1-488.727273 488.727273z m0-907.636364a418.909091 418.909091 0 1 0 418.909091 418.909091A418.909091 418.909091 0 0 0 512 93.090909z" p-id="31698" fill="#707070"></path></svg>