<?xml version="1.0" standalone="no"?><!DOCTYPE svg PUBLIC "-//W3C//DTD SVG 1.1//EN" "http://www.w3.org/Graphics/SVG/1.1/DTD/svg11.dtd"><svg t="1721896074457" class="icon" viewBox="0 0 1024 1024" version="1.1" xmlns="http://www.w3.org/2000/svg" p-id="74426" xmlns:xlink="http://www.w3.org/1999/xlink" width="32" height="32"><path d="M34.144 290.144v443.744h955.744V290.144H34.144z m921.6 409.6H68.288V324.288h887.456v375.456z m-716.8-102.4c20.48 0 40.96-6.816 58.016-20.48l78.496 78.496 23.904-23.904-78.496-78.496c10.24-17.056 20.48-37.536 20.48-58.016 0-58.016-44.384-102.4-102.4-102.4s-102.4 44.384-102.4 102.4 44.384 102.4 102.4 102.4z m0-170.688c37.536 0 68.256 30.72 68.256 68.256s-30.72 68.256-68.256 68.256-68.256-30.72-68.256-68.256 30.72-68.256 68.256-68.256z" p-id="74427" fill="#515151"></path></svg>