<?xml version="1.0" standalone="no"?><!DOCTYPE svg PUBLIC "-//W3C//DTD SVG 1.1//EN" "http://www.w3.org/Graphics/SVG/1.1/DTD/svg11.dtd"><svg t="1721699908480" class="icon" viewBox="0 0 3299 1024" version="1.1" xmlns="http://www.w3.org/2000/svg" p-id="12882" xmlns:xlink="http://www.w3.org/1999/xlink" width="103.09375" height="32"><path d="M2535.200308 814.885813H90.542868a90.542868 90.542868 0 0 1-90.542868-90.542868V90.542868a90.542868 90.542868 0 0 1 90.542868-90.542868h2444.65744a90.542868 90.542868 0 0 1 90.542869 90.542868v633.800077a90.542868 90.542868 0 0 1-90.542869 90.542868z m45.271434-724.342945a45.271434 45.271434 0 0 0-45.271434-45.271434H90.542868a45.271434 45.271434 0 0 0-45.271434 45.271434v633.800077a45.271434 45.271434 0 0 0 45.271434 45.271434h2444.65744a45.271434 45.271434 0 0 0 45.271434-45.271434V90.542868z" fill="#707070" p-id="12883"></path><path d="M248.223273 513.061162h160.215605v74.652595h27.570304v-74.652595h160.215605v-25.442546H436.009182v-39.974676H534.202922v16.614616h27.162861V292.725093h-72.434295q16.976788-18.878188 35.175904-41.01592l-28.294646-15.211201q-19.964702 30.422404-39.431419 56.227121H373.44406l13.083444-10.955687q-19.783617-21.187031-45.995777-46.312677l-20.145788 16.614616q19.647802 20.82486 36.62459 40.744291H283.580263v171.533463h26.891232V447.734483h97.967383v39.974676H248.223273v25.442546z m187.785909-131.287158H534.202922v41.015919H436.009182v-41.015919z m-125.537687 0h97.967383v41.015919H310.471495v-41.015919zM534.202922 357.644329H436.009182v-40.336848H534.202922V357.644329z m-223.867241-40.336848h97.967383V357.644329H310.471495v-40.336848z m426.547452 79.587182h125.220786v128.751958a21.413388 21.413388 0 0 1-24.401303 24.039132 539.635494 539.635494 0 0 1-55.548049-2.852101c2.127757 11.815844 3.893343 22.635717 5.296757 31.690004q30.784575 0.3169 60.482636 0.3169a38.933433 38.933433 0 0 0 44.230191-43.822748V396.713577h68.631494v-26.529061H737.018947v26.529061z m-115.668515 81.488581a505.681919 505.681919 0 0 0 44.230192-44.411277v150.844418h29.471703V397.573734a624.021447 624.021447 0 0 0 38.571262-58.852864l-24.763474-15.211202a427.950866 427.950866 0 0 1-99.597155 126.26203q6.700172 13.58143 12.359101 28.656817z m136.176474-188.14808h183.575665v-26.52906h-183.439851v26.52906zM624.74579 364.887759a494.816774 494.816774 0 0 0 101.860727-112.816414l-25.442546-15.573373a360.270072 360.270072 0 0 1-90.542868 101.136383c5.206215 9.054287 9.914444 18.108574 14.169959 27.162861z m403.911735-48.440435h70.034909v-22.635717h-63.877994l12.721273-48.802606-25.442546-5.658929q-6.383272 29.018989-12.359101 54.325721h-36.805676v22.635717h31.146746q-14.486859 58.309607-27.932474 96.201797v24.401303h56.589292v51.609435q-31.146747 3.938615-61.523879 7.107615l3.893344 25.804718q29.018989-4.527143 57.630535-8.82793v75.331666h23.36006v-78.862838l35.719162-4.979858c0.452714-7.288701 1.312872-15.437559 2.489929-24.401303q-19.466717 3.169-38.209091 5.65893v-48.440435h33.953576v-23.36006h-33.953576V349.178571h-23.405331v64.375979h-31.690004q12.359102-39.929405 27.932475-97.24304z m95.839626 191.317081h48.802606v41.06119a11.906387 11.906387 0 0 1-12.721273 14.124688c-7.786687 0-16.388259-0.362171-25.804717-1.041243l4.934586 21.911374q16.614616 0.362171 27.570303 0.362171a26.483789 26.483789 0 0 0 28.656818-31.146746V379.057718h-93.938226v208.248596h22.635717v-79.587181z m65.417222-265.969676a350.627257 350.627257 0 0 1-113.540756 103.309413 192.539409 192.539409 0 0 1 18.742373 21.549203 434.605767 434.605767 0 0 0 43.505849-31.690004v15.573373h122.730857v-17.701131a296.980608 296.980608 0 0 0 44.547091 30.422404 211.327054 211.327054 0 0 1 18.380203-24.401303 235.954714 235.954714 0 0 1-103.626313-89.139454l6.021101-7.786686h-36.579319z m89.501626 299.923251a15.845002 15.845002 0 0 1-17.33896 18.425474 307.845752 307.845752 0 0 1-38.20909-2.8521q3.169 13.58143 4.934586 26.52906 23.36006 1.086514 41.378091 0.724343a32.731247 32.731247 0 0 0 33.229233-39.612505V372.674445h-23.858046v169.043535z m-23.676961-213.590626h-109.511599a462.583513 462.583513 0 0 0 57.313636-60.165736 291.593307 291.593307 0 0 0 52.333778 60.165736z m-30.422403 190.140023h22.635717V389.515419h-22.635717v128.751958z m-100.819484-64.375979h48.802606v33.953576h-48.666792v-33.953576z m48.802606-19.828888h-48.666792v-33.591404h48.802606v33.591404z m313.731038-112.092071a361.809301 361.809301 0 0 1-154.556676 228.801828 195.934767 195.934767 0 0 1 21.594474 26.52906 390.647205 390.647205 0 0 0 152.610005-218.570483q5.115672 10.819873 10.457701 22.635717 65.779394 147.856504 143.238817 193.807009l24.763475-31.101475q-77.414152-31.690004-143.600989-176.558593a302.141551 302.141551 0 0 0-87.011696-125.220787l-23.36006 16.614616a176.558593 176.558593 0 0 1 55.864949 62.972565z m342.704756 249.355059h213.635898v-25.352003h-187.106837V284.938406h182.17225v-25.442546h-208.701311v311.965452z m-123.772101-80.673695a335.778227 335.778227 0 0 0 42.102434-93.530783v189.370408h26.166889v-194.667166q18.425474 21.187031 32.867061 40.744291l19.466717-18.108574q-21.594474-25.125646-36.760405-40.744291l-15.573373 14.351045V331.658526h44.18492v-24.763474h-44.18492V237.901386h-26.166889v68.993666h-50.930363v24.763474h50.749277a411.426793 411.426793 0 0 1-53.239206 128.027616 313.77631 313.77631 0 0 1 11.317858 31.101475z m162.343363 11.317858h169.767878v-23.903317h-71.800495v-54.325721h56.589293v-24.039132h-56.589293V348.590042h64.37598v-24.084403h-153.515433V348.590042h62.972564v50.930364h-56.589292v24.039131h56.589292v54.325721h-71.800494v24.039132z" fill="#707070" p-id="12884"></path></svg>