<?xml version="1.0" standalone="no"?><!DOCTYPE svg PUBLIC "-//W3C//DTD SVG 1.1//EN" "http://www.w3.org/Graphics/SVG/1.1/DTD/svg11.dtd"><svg t="1722305246169" class="icon" viewBox="0 0 1288 1024" version="1.1" xmlns="http://www.w3.org/2000/svg" p-id="12813" xmlns:xlink="http://www.w3.org/1999/xlink" width="40.25" height="32"><path d="M275.786323 531.852387L457.496774 350.141935a33.032258 33.032258 0 0 0 0-46.740645l-5.219097-5.219096a33.032258 33.032258 0 0 0-46.707612 0L223.826581 479.95871a33.032258 33.032258 0 0 0 0 46.707613l5.219096 5.219096a33.032258 33.032258 0 0 0 46.740646 0z" fill="#707070" p-id="12814"></path><path d="M275.786323 475.268129l181.710451 181.710452a33.032258 33.032258 0 0 1 0 46.740645l-5.219097 5.219097a33.032258 33.032258 0 0 1-46.707612 0L223.826581 527.194839a33.032258 33.032258 0 0 1 0-46.707613l5.219096-5.219097a33.032258 33.032258 0 0 1 46.740646 0zM1023.900903 531.852387L842.157419 350.141935a33.032258 33.032258 0 0 1 0-46.740645l5.252129-5.219096a33.032258 33.032258 0 0 1 46.707613 0l181.710452 181.743483a33.032258 33.032258 0 0 1 0 46.707613l-5.219097 5.219097a33.032258 33.032258 0 0 1-46.707613 0z" fill="#707070" p-id="12815"></path><path d="M1023.900903 475.268129l-181.743484 181.710452a33.032258 33.032258 0 0 0 0 46.740645l5.252129 5.219097a33.032258 33.032258 0 0 0 46.707613 0l181.710452-181.743484a33.032258 33.032258 0 0 0 0-46.707613l-5.219097-5.219097a33.032258 33.032258 0 0 0-46.707613 0z" fill="#707070" p-id="12816"></path><path d="M294.978065 466.844903h742.796387v73.463742H294.978065z" fill="#707070" p-id="12817"></path><path d="M1128.216774 0a132.129032 132.129032 0 0 1 132.129032 132.129032v731.334194a132.129032 132.129032 0 0 1-132.129032 132.129032H136.951742a132.129032 132.129032 0 0 1-132.129032-132.129032V132.129032a132.129032 132.129032 0 0 1 132.129032-132.129032h991.265032z m0 99.096774H136.951742a33.032258 33.032258 0 0 0-32.801032 29.167484L103.919484 132.129032v731.334194a33.032258 33.032258 0 0 0 29.200516 32.801032l3.831742 0.231226h991.265032a33.032258 33.032258 0 0 0 32.801032-29.167484l0.231226-3.864774V132.129032a33.032258 33.032258 0 0 0-29.200516-32.801032L1128.216774 99.096774z" fill="#707070" p-id="12818"></path></svg>