<?xml version="1.0" standalone="no"?><!DOCTYPE svg PUBLIC "-//W3C//DTD SVG 1.1//EN" "http://www.w3.org/Graphics/SVG/1.1/DTD/svg11.dtd"><svg t="1721701599252" class="icon" viewBox="0 0 1101 1024" version="1.1" xmlns="http://www.w3.org/2000/svg" p-id="28879" xmlns:xlink="http://www.w3.org/1999/xlink" width="34.40625" height="32"><path d="M715.698925 946.924731H99.096774a99.096774 99.096774 0 0 1-99.096774-99.096774V99.096774a99.096774 99.096774 0 0 1 99.096774-99.096774h902.881721a99.096774 99.096774 0 0 1 99.096774 99.096774v473.462366a33.032258 33.032258 0 0 1-66.064516 0V99.096774a33.032258 33.032258 0 0 0-33.032258-33.032258H99.096774a33.032258 33.032258 0 0 0-33.032258 33.032258v748.731183a33.032258 33.032258 0 0 0 33.032258 33.032258h616.602151a33.032258 33.032258 0 0 1 0 66.064516z" fill="#515151" p-id="28880"></path><path d="M165.16129 770.752688a33.032258 33.032258 0 0 1-23.342795-9.689462 33.032258 33.032258 0 0 1 0-46.685592l198.193548-198.193548a33.032258 33.032258 0 0 1 46.685591 0L528.516129 658.002581l373.044301-373.044301a33.032258 33.032258 0 0 1 46.685592 46.685591l-396.387097 396.387097a33.032258 33.032258 0 0 1-46.685592 0L363.354839 586.212473 188.504086 761.063226A33.032258 33.032258 0 0 1 165.16129 770.752688zM319.311828 396.387097a121.11828 121.11828 0 1 1 121.11828-121.11828 121.11828 121.11828 0 0 1-121.11828 121.11828z m0-176.172043a55.053763 55.053763 0 1 0 55.053763 55.053763 55.053763 55.053763 0 0 0-55.053763-55.053763zM1024 792.774194a33.032258 33.032258 0 0 1-23.342796-9.689463L913.892473 696.32l-86.764731 86.764731a33.032258 33.032258 0 0 1-46.685591-46.685591l110.107526-110.107527a33.032258 33.032258 0 0 1 46.685592 0l110.107527 110.107527a33.032258 33.032258 0 0 1 0 46.685591A33.032258 33.032258 0 0 1 1024 792.774194z" fill="#515151" p-id="28881"></path><path d="M913.892473 1024a33.032258 33.032258 0 0 1-33.032258-33.032258V649.634409a33.032258 33.032258 0 0 1 66.064516 0v341.333333a33.032258 33.032258 0 0 1-33.032258 33.032258z" fill="#515151" p-id="28882"></path></svg>