<?xml version="1.0" standalone="no"?><!DOCTYPE svg PUBLIC "-//W3C//DTD SVG 1.1//EN" "http://www.w3.org/Graphics/SVG/1.1/DTD/svg11.dtd"><svg t="1722417653319" class="icon" viewBox="0 0 1080 1024" version="1.1" xmlns="http://www.w3.org/2000/svg" p-id="15384" xmlns:xlink="http://www.w3.org/1999/xlink" width="33.75" height="32"><path d="M540.444444 0a512 512 0 1 0 0.056889 1024.056889A512 512 0 0 0 540.444444 0z m0 937.130667A425.244444 425.244444 0 0 1 115.313778 512 425.187556 425.187556 0 0 1 540.444444 86.869333 425.244444 425.244444 0 0 1 965.575111 512 425.244444 425.244444 0 0 1 540.444444 937.130667z" p-id="15385" fill="#707070"></path><path d="M720.896 645.802667l-158.72-119.466667V253.155556a9.159111 9.159111 0 0 0-9.159111-9.102223l-67.072-0.113777a9.159111 9.159111 0 0 0-9.102222 9.102222v314.766222c0 2.958222 1.365333 5.688889 3.754666 7.395556l189.041778 137.841777a9.216 9.216 0 0 0 12.8-1.934222l40.504889-52.508444a9.102222 9.102222 0 0 0-2.048-12.8z" p-id="15386" fill="#707070"></path></svg>