<?xml version="1.0" standalone="no"?><!DOCTYPE svg PUBLIC "-//W3C//DTD SVG 1.1//EN" "http://www.w3.org/Graphics/SVG/1.1/DTD/svg11.dtd"><svg t="1722328147466" class="icon" viewBox="0 0 1024 1024" version="1.1" xmlns="http://www.w3.org/2000/svg" p-id="1480" xmlns:xlink="http://www.w3.org/1999/xlink" width="32" height="32"><path d="M897.792 137.236H126.208c-36.608 0-64.768 30.976-64.768 64.768V782.1c0 36.608 28.16 64.768 64.768 64.768h771.584c36.608 0 64.768-28.16 64.768-64.768V202.004c0-33.792-28.16-64.768-64.768-64.768z m0 611.072c0 16.896-14.08 30.976-30.976 30.976H157.184c-19.712 0-30.976-14.08-30.976-30.976V235.796c0-16.896 14.08-30.976 30.976-30.976H864c19.712 0 30.976 14.08 30.976 30.976v512.512h2.816z" p-id="1481" fill="#707070"></path><path d="M357.12 551.188h425.216c16.896 0 30.976-14.08 30.976-30.976s-14.08-30.976-30.976-30.976H357.12c-16.896 0-30.976 14.08-30.976 30.976s11.264 30.976 30.976 30.976z m0 149.248h228.096c16.896 0 30.976-14.08 30.976-30.976s-14.08-30.976-30.976-30.976H357.12c-16.896 0-30.976 14.08-30.976 30.976s11.264 30.976 30.976 30.976zM221.952 266.772c-19.712 0-30.976 14.08-30.976 30.976v256.256c0 16.896 14.08 30.976 30.976 30.976s30.976-14.08 30.976-30.976V297.748c2.816-14.08-11.264-30.976-30.976-30.976zM357.12 399.124h425.216c16.896 0 30.976-14.08 30.976-30.976s-14.08-30.976-30.976-30.976H357.12c-16.896 0-30.976 14.08-30.976 30.976s11.264 30.976 30.976 30.976z m475.904 349.184c19.712 0 30.976-14.08 30.976-30.976V587.796L703.488 748.308h129.536z" p-id="1482" fill="#707070"></path></svg>