<?xml version="1.0" standalone="no"?><!DOCTYPE svg PUBLIC "-//W3C//DTD SVG 1.1//EN" "http://www.w3.org/Graphics/SVG/1.1/DTD/svg11.dtd"><svg t="1722417580621" class="icon" viewBox="0 0 1024 1024" version="1.1" xmlns="http://www.w3.org/2000/svg" p-id="10006" xmlns:xlink="http://www.w3.org/1999/xlink" width="32" height="32"><path d="M211.62148438 156.13261719c0 17.10527344-0.04746094 33.56279297 0.01054687 50.0203125 0.14677734 41.18027344 29.2078125 75.3890625 66.97705078 78.90820312 41.11875 3.83115234 76.02802734-23.42636719 82.95292969-65.44248047 1.45371094-8.81455078 0.72949219-18.03339844 0.81298828-27.06503906 0.10986328-11.92939453 0.02636719-23.85966797 0.02636719-36.56074219h299.37568359c0 16.89169922-0.06679687 33.88535156 0.01230469 50.87988282 0.15380859 33.11367188 18.28388672 60.90820313 47.70703125 73.29638671 47.65869141 20.06982422 102.11132813-16.79589844 103.04121094-69.91523437 0.31201172-17.99736328 0.04833984-36.00351563 0.04833984-56.01005859 27.13798828 1.13994141 53.72314453-0.65390625 79.21318359 3.98144531 42.03720703 7.64648438 69.82822266 46.21201172 70.01806641 91.72792969 0.24345703 58.15810547 0.13359375 116.32236328 0.13007813 174.48486328-0.00878906 146.37128906 0.01669922 292.74433594-0.10283204 439.1165039-0.04658203 57.68261719-38.55322266 97.52519531-94.25390625 97.54101563-237.85224609 0.06679687-475.69921875 0.06416016-713.54882812 0C102.13964844 961.08066406 62.55634766 920.57363281 62.4640625 866.71074219 62.21357422 718.72050781 62.34101562 570.73115234 62.33398437 422.74267578 62.33046875 364.90537109 62.16523437 307.06367188 62.45087891 249.228125c0.21621094-43.94970703 26.30390625-78.93808594 67.00693359-90.71191406 3.88652344-1.125 7.94003906-2.23857422 11.92412109-2.27460938 23.04404297-0.21884766 46.08984375-0.10898438 70.23955078-0.10898437zM121.58984375 403.21953125v14.48789062c0.02021484 138.28886719 0.06679687 276.57597656 0.0421875 414.86396485-0.00263672 24.13300781 11.7 36.27509766 34.97167969 36.2671875 152.20371094-0.04746094 304.40917969-0.028125 456.61376953-0.03076172 85.63359375-0.00263672 171.26894531-0.084375 256.90341797 0.09667969 11.23769531 0.02460937 21.18515625-3.41191406 26.37333984-13.32773438 3.91904297-7.48476562 5.88867188-16.98046875 5.91503906-25.59199218 0.36210937-123.74736328 0.24960937-247.49648437 0.24960938-371.24560547v-55.52050782H121.58896484z" p-id="10007" fill="#707070"></path><path d="M331.65546875 155.46904297c0 14.84121094 0.16347656 29.6859375-0.03691406 44.52626953-0.36210937 26.95605469-19.63564453 47.43544922-44.46914063 47.52509766-24.90292969 0.09052734-44.70820312-21.18164063-44.75742187-48.25634766-0.05273438-30.32929688-0.18808594-60.66298828 0.140625-90.98789062 0.21621094-19.90283203 11.2359375-35.84179688 28.46162109-42.61992188 17.65019531-6.94335938 35.66865234-2.72988281 48.78984375 11.64287109 8.33378906 9.12919922 11.78613281 20.34316406 11.91005859 32.67509766 0.15380859 15.16464844 0.03691406 30.33017578 0.03691407 45.49482422h-0.07558594zM781.81015625 155.48662109c-0.00351562 14.84121094 0.16083984 29.6859375-0.03955078 44.52626953-0.365625 26.95078125-19.65234375 47.43017578-44.48408203 47.50839844-24.90732422 0.07998047-44.69677734-21.19042969-44.74335938-48.27392578-0.05273438-30.32841797-0.18808594-60.66210938 0.14326172-90.98789062 0.21708984-19.88964844 11.25175781-35.83740234 28.4765625-42.60761719 17.65019531-6.93457031 35.67128906-2.71318359 48.78544922 11.66308594 8.33027344 9.13007812 11.70966797 20.34667969 11.90654297 32.67773437 0.12392578 7.74052734-0.028125 15.48720703-0.04130859 23.22949219-0.00966797 7.42236328-0.00087891 14.84296875-0.00351563 22.26445312zM841.37890625 714.28203125V805.2734375H723.21171875V714.28203125H841.37890625zM543.19414062 714.17128906h118.08984376v91.06611328h-118.08984375V714.17128906zM481.21806641 805.58808594H363.1484375v-91.23046875h118.06962891v91.23046875zM182.81445312 805.50019531V714.43408203H301.08886719v91.06611328H182.81445312zM723.15810547 589.79990234h117.95273437v91.41855469H723.15810547V589.80078125zM661.36220703 590.13300781v91.08544922H543.10273438V590.13300781H661.36132813zM362.88828125 681.39072266v-91.06347657h118.24980469v91.06347657H362.88828125zM301.15302734 681.48300781h-118.06347656V590.25693359h118.06347656v91.22607422zM723.09394531 465.99101562h118.07841797v91.20761719H723.09394531V465.99101562zM542.94013672 557.28125V466.22392578h118.265625V557.28125h-118.265625zM481.26640625 466.16503906v91.1663086H363.17041016V466.16416016h118.09599609z" p-id="10008" fill="#707070"></path></svg>