<?xml version="1.0" standalone="no"?><!DOCTYPE svg PUBLIC "-//W3C//DTD SVG 1.1//EN" "http://www.w3.org/Graphics/SVG/1.1/DTD/svg11.dtd"><svg t="1738984857209" class="icon" viewBox="0 0 1024 1024" version="1.1" xmlns="http://www.w3.org/2000/svg" p-id="62337" xmlns:xlink="http://www.w3.org/1999/xlink" width="32" height="32"><path d="M213.589333 128.341333a85.333333 85.333333 0 0 0-85.333333 85.333334v596.693333a85.333333 85.333333 0 0 0 85.333333 85.333333H810.666667a85.333333 85.333333 0 0 0 85.333333-85.333333V213.674667a85.333333 85.333333 0 0 0-85.333333-85.333334H213.589333zM715.434667 411.306667l-213.333334 256a42.666667 42.666667 0 0 1-62.933333 2.858666l-128-128a42.666667 42.666667 0 1 1 60.330667-60.330666l94.976 94.976 183.424-220.16a42.666667 42.666667 0 1 1 65.536 54.656z" fill="#515151" p-id="62338"></path></svg>