<?xml version="1.0" standalone="no"?><!DOCTYPE svg PUBLIC "-//W3C//DTD SVG 1.1//EN" "http://www.w3.org/Graphics/SVG/1.1/DTD/svg11.dtd"><svg t="1738985297428" class="icon" viewBox="0 0 1024 1024" version="1.1" xmlns="http://www.w3.org/2000/svg" p-id="79390" xmlns:xlink="http://www.w3.org/1999/xlink" width="32" height="32"><path d="M896 256V166.4c0-19.2-19.2-38.4-38.4-38.4H166.4c-19.2 0-38.4 19.2-38.4 38.4V256h768zM128 320v537.6c0 19.2 19.2 38.4 38.4 38.4h697.6c19.2 0 32-12.8 32-32V768c0-19.2 12.8-32 32-32s32 19.2 32 32v89.6c0 57.6-44.8 102.4-102.4 102.4H166.4c-57.6 0-102.4-44.8-102.4-102.4V166.4C64 108.8 108.8 64 166.4 64h697.6c51.2 0 96 44.8 96 102.4v121.6c0 19.2-12.8 32-32 32H128z" fill="#515151" p-id="79391"></path><path d="M614.4 416c6.4-6.4 12.8-19.2 25.6-19.2s25.6 0 32 12.8 12.8 19.2 6.4 32l-115.2 300.8c-6.4 19.2-25.6 25.6-44.8 19.2-19.2-6.4-25.6-25.6-19.2-44.8l115.2-300.8z m153.6 38.4c-6.4-6.4-12.8-19.2-6.4-32s12.8-19.2 25.6-19.2 25.6 0 32 12.8l128 147.2c12.8 12.8 12.8 32 0 44.8l-128 147.2c-12.8 12.8-32 12.8-44.8 0-12.8-12.8-12.8-32 0-44.8L883.2 576 768 454.4z m-352 0c6.4-6.4 12.8-19.2 6.4-32 0-12.8-12.8-25.6-19.2-25.6-12.8 0-25.6 0-32 12.8l-128 147.2c-12.8 12.8-12.8 32 0 44.8l128 147.2c12.8 12.8 32 12.8 44.8 0 12.8-12.8 12.8-32 0-44.8L307.2 576l108.8-121.6z" fill="#515151" p-id="79392"></path></svg>