<?xml version="1.0" standalone="no"?><!DOCTYPE svg PUBLIC "-//W3C//DTD SVG 1.1//EN" "http://www.w3.org/Graphics/SVG/1.1/DTD/svg11.dtd"><svg t="1739423279058" class="icon" viewBox="0 0 1024 1024" version="1.1" xmlns="http://www.w3.org/2000/svg" p-id="199773" xmlns:xlink="http://www.w3.org/1999/xlink" width="32" height="32"><path d="M 494.582 871.132 c 0 63.815 -52.213 116.029 -116.029 116.029 l -216.72 0 c -63.815 0 -116.029 -52.213 -116.029 -116.029 l 0 -216.72 c 0 -63.815 52.213 -116.029 116.029 -116.029 l 216.72 0 c 63.815 0 116.029 52.213 116.029 116.029 l 0 216.72 Z" p-id="199774" fill="#515151"></path><path d="M 997.001 872.156 c 0 63.815 -52.213 116.029 -116.029 116.029 l -216.719 0 c -63.815 0 -116.029 -52.213 -116.029 -116.029 l 0 -216.72 c 0 -63.815 52.213 -116.029 116.029 -116.029 l 216.72 0 c 63.815 0 116.029 52.213 116.029 116.029 l 0 216.72 Z" p-id="199775" fill="#515151"></path><path d="M 997.351 370.902 c 0 63.815 -52.213 116.029 -116.029 116.029 l -216.72 0 c -63.815 0 -116.029 -52.213 -116.029 -116.029 l 0 -216.72 c 0 -63.815 52.213 -116.029 116.029 -116.029 l 216.72 0 c 63.815 0 116.029 52.213 116.029 116.029 l 0 216.72 Z" p-id="199776" fill="#515151"></path><path d="M 378.554 38.154 l -216.72 0 c -63.815 0 -116.029 52.213 -116.029 116.029 l 0 216.72 c 0 63.815 52.213 116.029 116.029 116.029 l 216.72 0 c 63.815 0 116.029 -52.213 116.029 -116.029 l 0 -216.72 c 0 -63.815 -52.213 -116.029 -116.029 -116.029 Z M 402.41 338.791 c 0 31.908 -26.107 58.014 -58.014 58.014 l -149.506 0 c -31.908 0 -58.014 -26.107 -58.014 -58.014 l 0 -149.507 c 0 -31.908 26.107 -58.014 58.014 -58.014 l 149.506 0 c 31.908 0 58.014 26.107 58.014 58.014 l 0 149.507 Z" p-id="199777" fill="#515151"></path></svg>