<?xml version="1.0" standalone="no"?><!DOCTYPE svg PUBLIC "-//W3C//DTD SVG 1.1//EN" "http://www.w3.org/Graphics/SVG/1.1/DTD/svg11.dtd"><svg t="1738985350108" class="icon" viewBox="0 0 1024 1024" version="1.1" xmlns="http://www.w3.org/2000/svg" p-id="80447" xmlns:xlink="http://www.w3.org/1999/xlink" width="32" height="32"><path d="M192 512h128v-128H192z m0 192h128v-128H192z m768-192.032V160a96 96 0 0 0-96-96h-96v-31.104c0-17.216-13.248-32.064-30.464-32.864L736 0a32 32 0 0 0-32 32v32H320v-31.104C320 15.68 306.752 0.832 289.536 0.032L288 0a32 32 0 0 0-32 32v32H160a96 96 0 0 0-96 96v640a96 96 0 0 0 96 96h288c58.912 78.08 151.488 128 255.744 128h2.848-0.16c175.968-1.312 318.816-146.432 317.536-322.4a317.12 317.12 0 0 0-64.576-190.4l0.576 0.8zM128 176A48 48 0 0 1 176 128H256v31.104c0 17.216 13.248 32.064 30.464 32.864L288 192a32 32 0 0 0 32-32V128h384v31.104c0 17.216 13.248 32.064 30.464 32.864L736 192a32 32 0 0 0 32-32V128h80A48 48 0 0 1 896 176V256H128zM384 704v0.384a318.08 318.08 0 0 0 27.456 129.664l-0.8-2.016H176a48 48 0 0 1-48-48v-464h768v128c-52.832-39.936-119.616-64-192-64s-139.168 24.032-192.8 64.576l0.8-0.576v-64h-128v128h64a316.384 316.384 0 0 0-64 191.52v0.512-0.032z m575.968 3.424a256 256 0 1 1-77.344-186.784l-0.064-0.064a255.584 255.584 0 0 1 77.408 183.552l-0.032 3.488v-0.192zM800 704h-96v-160a32 32 0 0 0-64 0v192a32 32 0 0 0 32 32h128a32 32 0 0 0 0-64z" p-id="80448" fill="#515151"></path></svg>