<?xml version="1.0" standalone="no"?><!DOCTYPE svg PUBLIC "-//W3C//DTD SVG 1.1//EN" "http://www.w3.org/Graphics/SVG/1.1/DTD/svg11.dtd"><svg t="1739329746444" class="icon" viewBox="0 0 1024 1024" version="1.1" xmlns="http://www.w3.org/2000/svg" p-id="85272" xmlns:xlink="http://www.w3.org/1999/xlink" width="32" height="32"><path d="M876.16 0v226.56h-73.536a647.872 647.872 0 0 0-31.872-82.56c-10.24-20.992-20.992-36.992-32.256-48a94.336 94.336 0 0 0-39.36-23.232c-15.04-4.48-34.752-6.72-59.264-6.72H420.032v408.064h154.56c22.016 0 39.232-3.648 51.776-10.88 12.48-7.232 22.848-19.392 31.104-36.352 8.32-17.024 16.128-43.264 23.68-78.784h70.464v316.544h-70.528c-7.488-33.984-15.488-59.648-24-76.864-8.448-17.28-18.56-29.504-30.336-36.736-11.776-7.296-29.184-10.88-52.16-10.88H420.032v294.016c0 30.08 1.792 54.016 5.248 72.064 3.52 17.984 9.28 32.256 17.28 42.752 8 10.496 18.752 18.368 32.256 23.68 13.504 5.184 30.272 10.048 50.24 14.592V1024H192v-36.736c30.976-8 51.776-16.896 62.272-26.624 10.496-9.792 17.344-23.68 20.608-41.664 3.264-17.984 4.864-45.504 4.864-82.56V187.52c0-34.496-1.28-59.584-3.712-75.392-2.56-15.744-6.656-27.968-12.416-36.736A63.808 63.808 0 0 0 240.768 54.4C231.232 49.152 214.976 43.264 192 36.736V0h684.16z" p-id="85273" fill="#515151"></path></svg>