<?xml version="1.0" standalone="no"?><!DOCTYPE svg PUBLIC "-//W3C//DTD SVG 1.1//EN" "http://www.w3.org/Graphics/SVG/1.1/DTD/svg11.dtd"><svg t="1739329896426" class="icon" viewBox="0 0 1024 1024" version="1.1" xmlns="http://www.w3.org/2000/svg" p-id="89742" xmlns:xlink="http://www.w3.org/1999/xlink" width="32" height="32"><path d="M335.36 445.013333c0 13.226667-11.093333 24.32-24.32 24.32H115.626667a24.32 24.32 0 1 1 0-48.64h73.386666V176.64H91.306667v24.32c0 13.653333-10.666667 24.746667-24.32 24.746667-13.226667 0-24.32-11.093333-24.32-24.746667V152.32c0-13.226667 11.093333-24.32 24.32-24.32h292.693333c13.226667 0 24.32 11.093333 24.32 24.32v48.64c0 13.653333-11.093333 24.746667-24.32 24.746667-13.653333 0-24.32-11.093333-24.32-24.746667v-24.32H237.653333v244.053333h73.386667c13.226667 0 24.32 10.666667 24.32 24.32z m-224.853333 198.4c13.653333 0 25.173333 11.52 25.173333 26.026667v52.48c0 43.52 33.706667 78.933333 75.093333 78.933333h602.453334c41.386667 0 75.093333-35.413333 75.093333-78.933333V302.08c0-43.52-33.706667-78.933333-75.093333-78.933333H512c-13.653333 0-25.173333-11.52-25.173333-26.026667 0-14.506667 11.52-26.453333 25.173333-26.453333h301.226667C882.346667 170.666667 938.666667 229.546667 938.666667 302.08v419.84c0 72.533333-56.32 131.413333-125.44 131.413333H210.773333C141.653333 853.333333 85.333333 794.453333 85.333333 721.92v-52.48c0-14.506667 11.093333-26.026667 25.173334-26.026667z" fill="#515151" p-id="89743"></path></svg>