<?xml version="1.0" standalone="no"?><!DOCTYPE svg PUBLIC "-//W3C//DTD SVG 1.1//EN" "http://www.w3.org/Graphics/SVG/1.1/DTD/svg11.dtd"><svg t="1739329701164" class="icon" viewBox="0 0 1024 1024" version="1.1" xmlns="http://www.w3.org/2000/svg" p-id="84001" xmlns:xlink="http://www.w3.org/1999/xlink" width="32" height="32"><path d="M0 0h1024v1024H0z" fill="#515151" fill-opacity=".01" p-id="84002"></path><path d="M851.090286 73.142857c51.931429 0 94.500571 39.497143 99.328 90.112l0.438857 9.654857v518.582857c0 51.931429-39.497143 94.500571-90.112 99.328l-9.654857 0.438858h-19.968v59.830857c0 51.931429-39.497143 94.500571-90.112 99.328L731.428571 950.857143H172.909714C117.76 950.857143 73.142857 906.24 73.142857 851.090286V292.571429c0-55.076571 44.617143-99.766857 99.766857-99.766858h59.757715v-19.894857c0-51.931429 39.643429-94.500571 90.185142-99.328L332.434286 73.142857h518.656zM731.428571 272.603429H172.909714A19.968 19.968 0 0 0 152.868571 292.571429v558.518857c0 11.044571 8.923429 19.968 19.968 19.968H731.428571c10.971429 0 19.968-8.923429 19.968-19.968V292.571429A19.968 19.968 0 0 0 731.428571 272.603429zM506.733714 520.923429c45.129143 45.129143 46.08 117.979429 1.462857 162.669714l-0.804571 0.585143-0.658286 0.731428-101.595428 92.233143c-44.690286 44.690286-117.540571 43.739429-162.742857-1.462857-45.056-45.056-44.690286-121.929143 0.512-167.204571l30.72-29.988572a39.862857 39.862857 0 0 1 61.074285 50.907429l-4.608 5.485714-31.232 30.500571a40.301714 40.301714 0 0 0 0 53.906286 35.693714 35.693714 0 0 0 46.08 4.388572l5.12-4.242286 102.107429-92.745143 3.437714-4.169143a35.328 35.328 0 0 0-1.024-40.155428l-4.242286-5.046858a39.862857 39.862857 0 0 1 56.393143-56.393142z m344.356572-367.981715h-518.582857c-9.508571 0-17.408 6.582857-19.456 15.36l-0.512 4.608-0.073143 19.894857H731.428571c51.858286 0 94.427429 39.570286 99.254858 90.185143l0.512 9.581715-0.073143 418.889142h19.968c9.508571 0 17.408-6.582857 19.456-15.36l0.512-4.534857V172.909714c0-9.508571-6.582857-17.408-15.36-19.456l-4.608-0.512z m-209.92 204.580572c42.422857 42.496 45.860571 109.568 9.508571 153.892571l-7.314286 8.045714-38.034285 40.301715a39.862857 39.862857 0 0 1-62.537143-49.078857l4.461714-5.705143 38.912-41.106286a35.328 35.328 0 0 0-1.462857-49.883429 35.84 35.84 0 0 0-44.690286-5.778285l-4.608 3.730285-98.157714 102.326858a39.716571 39.716571 0 0 1-0.292571 0.438857l-4.608 5.558857a33.206857 33.206857 0 0 0-9.508572 26.038857c0.365714 6.582857 2.633143 13.019429 6.509714 18.578286l4.388572 5.266285a39.862857 39.862857 0 1 1-56.393143 56.393143 116.955429 116.955429 0 0 1-34.157714-74.825143 113.225143 113.225143 0 0 1 23.113143-76.946285 23.552 23.552 0 0 1 1.462857-2.56l4.534857-5.632 106.130286-110.445715c44.763429-44.690286 117.540571-43.739429 162.742857 1.462858z" fill="#515151" p-id="84003"></path></svg>