<?xml version="1.0" standalone="no"?><!DOCTYPE svg PUBLIC "-//W3C//DTD SVG 1.1//EN" "http://www.w3.org/Graphics/SVG/1.1/DTD/svg11.dtd"><svg t="1694055665871" class="icon" viewBox="0 0 1024 1024" version="1.1" xmlns="http://www.w3.org/2000/svg" p-id="18538" xmlns:xlink="http://www.w3.org/1999/xlink" width="200" height="200"><path d="M931.925333 265.301333a84.352 84.352 0 0 0-18.090666-26.794666A84.906667 84.906667 0 0 0 853.333333 213.333333H341.333333c-12.672 0-24.661333 5.632-32.810666 15.317334l-213.333334 256c-13.184 15.829333-13.184 38.826667 0 54.656l213.333334 256c8.149333 9.728 20.138667 15.36 32.810666 15.36h512a84.352 84.352 0 0 0 60.16-24.832A84.906667 84.906667 0 0 0 938.666667 725.333333V298.666667c0-11.349333-2.218667-22.4-6.741334-33.365334z m-176.426666 344.533334l-60.330667 60.330666L597.333333 572.330667l-97.834666 97.834666-60.330667-60.330666L537.002667 512l-97.834667-97.834667 60.330667-60.330666L597.333333 451.669333l97.834667-97.834666 60.330667 60.330666L657.664 512l97.834667 97.834667z" p-id="18539"></path></svg>