<?xml version="1.0" standalone="no"?><!DOCTYPE svg PUBLIC "-//W3C//DTD SVG 1.1//EN" "http://www.w3.org/Graphics/SVG/1.1/DTD/svg11.dtd"><svg t="1739331020071" class="icon" viewBox="0 0 1024 1024" version="1.1" xmlns="http://www.w3.org/2000/svg" p-id="136125" xmlns:xlink="http://www.w3.org/1999/xlink" width="32" height="32"><path d="M204.8 230.4c-12.8 0-32 12.8-32 32s12.8 32 32 32h448c19.2 0 32-12.8 32-32s-12.8-32-32-32h-448zM550.4 480H204.8c-12.8 0-32 12.8-32 32s12.8 32 32 32h339.2c19.2 0 32-12.8 32-32 6.4-19.2-6.4-32-25.6-32zM441.6 793.6c19.2 0 32-12.8 32-32s-12.8-32-32-32H204.8c-19.2 0-32 12.8-32 32s12.8 32 32 32h236.8zM998.4 640l-32-32c-32-32-89.6-32-121.6 0l-243.2 243.2c-12.8 12.8-19.2 25.6-19.2 44.8v83.2c0 25.6 19.2 44.8 44.8 44.8h83.2c19.2 0 32-6.4 44.8-19.2l243.2-243.2c32-32 32-89.6 0-121.6z m-275.2 332.8c-6.4 6.4-6.4 6.4-12.8 6.4H627.2V896c0-6.4 0-12.8 6.4-12.8l204.8-204.8 89.6 89.6-204.8 204.8z m243.2-243.2l-6.4 12.8-89.6-89.6 12.8-12.8c6.4-6.4 19.2-12.8 32-12.8s19.2 6.4 32 12.8l32 32c6.4 12.8 6.4 44.8-12.8 57.6z" fill="#515151" p-id="136126"></path><path d="M448 960H89.6c-12.8 0-25.6-12.8-25.6-25.6V89.6c0-12.8 12.8-25.6 25.6-25.6h684.8c12.8 0 25.6 12.8 25.6 25.6v364.8c0 19.2 12.8 32 32 32s32-12.8 32-32V89.6c0-51.2-38.4-89.6-89.6-89.6H89.6C38.4 0 0 38.4 0 89.6v844.8c0 51.2 38.4 89.6 89.6 89.6H448c19.2 0 32-12.8 32-32S467.2 960 448 960z" fill="#515151" p-id="136127"></path></svg>