<?xml version="1.0" standalone="no"?><!DOCTYPE svg PUBLIC "-//W3C//DTD SVG 1.1//EN" "http://www.w3.org/Graphics/SVG/1.1/DTD/svg11.dtd"><svg t="1721701760660" class="icon" viewBox="0 0 1024 1024" version="1.1" xmlns="http://www.w3.org/2000/svg" p-id="37484" xmlns:xlink="http://www.w3.org/1999/xlink" width="32" height="32"><path d="M507.92448 793.78432c-158.79168 0-303.52384-81.5104-434.18624-244.5312a55.9616 55.9616 0 0 1 0-69.9904c130.6624-163.0208 275.39456-244.5312 434.18624-244.5312 158.80192 0 303.54432 81.5104 434.19648 244.5312a55.9616 55.9616 0 0 1 0 69.9904c-130.6624 163.0208-275.39456 244.5312-434.19648 244.5312m0-55.9104c140.3904 0 269.8752-72.94976 390.64576-223.62112-120.77056-150.66112-250.2656-223.62112-390.64576-223.62112-140.36992 0-269.86496 72.96-390.63552 223.62112C238.05952 664.92416 367.55456 737.8944 507.92448 737.8944" fill="#515151" p-id="37485"></path><path d="M507.92448 681.984c-92.50816 0-167.50592-75.10016-167.50592-167.7312 0-92.6208 74.99776-167.71072 167.50592-167.71072 92.5184 0 167.5264 75.08992 167.5264 167.71072 0 92.63104-75.008 167.7312-167.5264 167.7312m0-55.9104c61.68576 0 111.67744-50.0736 111.67744-111.8208s-49.99168-111.81056-111.67744-111.81056c-61.66528 0-111.6672 50.0736-111.6672 111.8208S446.2592 626.0736 507.92448 626.0736" fill="#515151" p-id="37486"></path><path d="M338.6368 920.13568a27.904 27.904 0 0 1-37.0176 11.90912 27.97568 27.97568 0 0 1-13.02528-36.67968L677.6832 108.544a27.92448 27.92448 0 1 1 50.03264 24.82176L338.6368 920.13568z" fill="#515151" p-id="37487"></path></svg>