<svg width="1024" height="1024" xmlns="http://www.w3.org/2000/svg" p-id="6088" version="1.1" class="icon" t="1694057895470">

 <g>
  <title>Layer 1</title>
  <path id="svg_1" data-spm-anchor-id="a313x.search_index.0.i0.1e4f3a81bd5RPA" p-id="6089" d="m877.47379,929.59437l-730.94861,0c-28.83276,0 -52.21068,-23.37792 -52.21068,-52.21069l0,-652.63309c0,-28.83277 23.37792,-52.21069 52.21068,-52.21069l730.94861,0c28.83277,0 52.21069,23.37792 52.21069,52.21069l0,652.63309c0.00102,28.83277 -23.37792,52.21069 -52.21069,52.21069zm0,-704.8448l-730.94861,0l0,652.63309l730.94861,0l0,-652.63309zm-235.12576,-130.32858l0,0l0,0zm52.38887,313.0665l52.21068,0c14.41588,0 26.10484,11.68896 26.10484,26.10483l0,52.21069c0,14.41689 -11.68896,26.10483 -26.10484,26.10483l-52.21068,0c-14.4169,0 -26.10484,-11.68896 -26.10484,-26.10483l0,-52.21069c0,-14.41587 11.68794,-26.10483 26.10484,-26.10483zm0,208.84275l52.21068,0c14.41588,0 26.10484,11.68896 26.10484,26.10483l0,52.21069c0,14.41587 -11.68896,26.10483 -26.10484,26.10483l-52.21068,0c-14.4169,0 -26.10484,-11.68896 -26.10484,-26.10483l0,-52.21069c0,-14.41587 11.68794,-26.10483 26.10484,-26.10483zm-208.84276,0l52.21069,0c14.4169,0 26.10483,11.68896 26.10483,26.10483l0,52.21069c0,14.41587 -11.68793,26.10483 -26.10483,26.10483l-52.21069,0c-14.41689,0 -26.10585,-11.68896 -26.10585,-26.10483l0,-52.21069c0.00102,-14.41587 11.68998,-26.10483 26.10585,-26.10483zm0,-208.84275l52.21069,0c14.4169,0 26.10483,11.68896 26.10483,26.10483l0,52.21069c0,14.41689 -11.68793,26.10483 -26.10483,26.10483l-52.21069,0c-14.41689,0 -26.10585,-11.68896 -26.10585,-26.10483l0,-52.21069c0.00102,-14.41587 11.68998,-26.10483 26.10585,-26.10483zm-208.84172,0l52.21068,0c14.4169,0 26.10586,11.68896 26.10586,26.10483l0,52.21069c0,14.41689 -11.68896,26.10483 -26.10586,26.10483l-52.21068,0c-14.4169,0 -26.10586,-11.68896 -26.10586,-26.10483l0,-52.21069c0,-14.41587 11.68896,-26.10483 26.10586,-26.10483zm0,208.84275l52.21068,0c14.4169,0 26.10586,11.68896 26.10586,26.10483l0,52.21069c0,14.41587 -11.68896,26.10483 -26.10586,26.10483l-52.21068,0c-14.4169,0 -26.10586,-11.68896 -26.10586,-26.10483l0,-52.21069c0,-14.41587 11.68896,-26.10483 26.10586,-26.10483z"/>
 </g>
</svg>