<?xml version="1.0" standalone="no"?><!DOCTYPE svg PUBLIC "-//W3C//DTD SVG 1.1//EN" "http://www.w3.org/Graphics/SVG/1.1/DTD/svg11.dtd"><svg t="1737695266395" class="icon" viewBox="0 0 1024 1024" version="1.1" xmlns="http://www.w3.org/2000/svg" p-id="7972" xmlns:xlink="http://www.w3.org/1999/xlink" width="32" height="32"><path d="M832 938.666667H192A106.780444 106.780444 0 0 1 85.333333 832V192c0-58.823111 47.843556-106.666667 106.666667-106.666667h640c58.823111 0 106.666667 47.843556 106.666667 106.666667v640a106.780444 106.780444 0 0 1-106.666667 106.666667zM192 170.666667A21.333333 21.333333 0 0 0 170.666667 192v640c0 11.776 9.557333 21.333333 21.333333 21.333333h640a21.333333 21.333333 0 0 0 21.333333-21.333333V192A21.333333 21.333333 0 0 0 832 170.666667H192z" p-id="7973" fill="#707070"></path><path d="M512 725.333333a42.609778 42.609778 0 0 1-33.336889-16.042666L286.663111 468.309333a42.666667 42.666667 0 0 1-0.568889-52.508444l76.8-100.408889a42.837333 42.837333 0 0 1 33.905778-16.725333h230.4c13.255111 0 25.827556 6.200889 33.905778 16.725333l76.8 100.408889a42.666667 42.666667 0 0 1-0.512 52.508444l-192 240.981334A42.780444 42.780444 0 0 1 512 725.333333zM374.158222 441.173333L512 614.229333l137.898667-173.056-43.747556-57.173333h-188.302222l-43.690667 57.173333z" p-id="7974" fill="#707070"></path></svg>