<?xml version="1.0" standalone="no"?><!DOCTYPE svg PUBLIC "-//W3C//DTD SVG 1.1//EN" "http://www.w3.org/Graphics/SVG/1.1/DTD/svg11.dtd"><svg t="1739421594858" class="icon" viewBox="0 0 1024 1024" version="1.1" xmlns="http://www.w3.org/2000/svg" p-id="2895" xmlns:xlink="http://www.w3.org/1999/xlink" width="32" height="32"><path d="M170.666667 245.333333A32 32 0 0 1 202.666667 213.333333h618.666666a32 32 0 0 1 0 64H202.666667A32 32 0 0 1 170.666667 245.333333zM170.666667 512a32 32 0 0 1 32-32h618.666666a32 32 0 0 1 0 64H202.666667A32 32 0 0 1 170.666667 512z m0 266.666667a32 32 0 0 1 32-32h618.666666a32 32 0 0 1 0 64H202.666667a32 32 0 0 1-32-32z" fill="#515151" p-id="2896"></path></svg>