<?xml version="1.0" standalone="no"?><!DOCTYPE svg PUBLIC "-//W3C//DTD SVG 1.1//EN" "http://www.w3.org/Graphics/SVG/1.1/DTD/svg11.dtd"><svg t="1694054251433" class="icon" viewBox="0 0 1024 1024" version="1.1" xmlns="http://www.w3.org/2000/svg" p-id="7229" xmlns:xlink="http://www.w3.org/1999/xlink" width="200" height="200"><path d="M617.216 179.2c-16.213333-10.069333-36.010667-11.690667-55.850667-2.432L306.432 325.290667h-125.44C151.893333 325.290667 128 349.056 128 378.026667v267.648c0 28.970667 23.893333 52.693333 52.992 52.693333h125.44l256.938667 149.76c7.296 3.584 15.36 5.205333 23.466666 5.205333 10.538667 0 21.077333-2.816 29.952-8.874666 16.213333-10.026667 25.898667-27.733333 25.898667-46.677334V226.304c0-19.328-9.685333-37.034667-25.472-47.104zM287.018667 644.864l-105.216 0.810667-0.810667-266.453334h106.026667v265.642667z m301.44 155.306667l-247.637334-144.469334V367.573333l246.826667-143.701333 1.237333 573.909333-0.426666 2.432zM896 503.637333a27.050667 27.050667 0 0 1-27.093333 26.965334h-123.008a27.050667 27.050667 0 0 1-27.136-26.965334c0-14.933333 12.16-26.965333 27.136-26.965333h123.008c14.933333 0 27.093333 12.074667 27.093333 26.965333z m-172.8-136.832a26.794667 26.794667 0 0 1 7.296-37.034666l106.837333-70.826667a26.752 26.752 0 1 1 29.952 44.245333l-106.837333 70.826667a25.130667 25.130667 0 0 1-14.933333 4.437333 25.088 25.088 0 0 1-22.314667-11.648z m144.085333 336.853334c12.544 8.064 15.786667 24.96 7.253334 37.034666a27.562667 27.562667 0 0 1-37.632 7.637334l-106.794667-70.826667a26.154667 26.154667 0 0 1-7.296-37.034667 26.453333 26.453333 0 0 1 37.205333-7.253333l107.264 70.442667z" fill="#333130" p-id="7230"></path></svg>