<?xml version="1.0" standalone="no"?><!DOCTYPE svg PUBLIC "-//W3C//DTD SVG 1.1//EN" "http://www.w3.org/Graphics/SVG/1.1/DTD/svg11.dtd"><svg t="1741331325801" class="icon" viewBox="0 0 1024 1024" version="1.1" xmlns="http://www.w3.org/2000/svg" p-id="10434" xmlns:xlink="http://www.w3.org/1999/xlink" width="32" height="32"><path d="M542.1632 33.984l409.6 209.28a25.6 25.6 0 0 1 0 45.568l-409.6 209.28a96 96 0 0 1-87.296 0L45.3312 288.768a25.6 25.6 0 0 1 0-45.568L454.8672 33.92a96 96 0 0 1 87.36 0z m-29.056 56.96a32 32 0 0 0-29.12 0L141.3952 266.112 483.9232 441.088a32 32 0 0 0 29.12 0l342.592-175.04-342.592-175.04z m275.904 300.992l164.032 83.84a25.6 25.6 0 0 1 0 45.568l-409.472 209.28a96 96 0 0 1-87.36 0L46.6752 521.28a25.6 25.6 0 0 1 0-45.568l161.728-82.624 70.336 35.904L142.7392 498.56l342.592 175.04a32 32 0 0 0 29.12 0L857.0432 498.56l-138.112-70.592 70.08-36.032z m0 248.064l164.032 83.84a25.6 25.6 0 0 1 0 45.568l-409.472 209.28a96 96 0 0 1-87.36 0l-409.536-209.28a25.6 25.6 0 0 1 0-45.568l161.728-82.624 70.336 35.904-136 69.504L485.3312 921.6a32 32 0 0 0 29.12 0l342.592-175.04-138.112-70.592L789.0112 640z" fill="#707070" p-id="10435"></path></svg>