<?xml version="1.0" standalone="no"?><!DOCTYPE svg PUBLIC "-//W3C//DTD SVG 1.1//EN" "http://www.w3.org/Graphics/SVG/1.1/DTD/svg11.dtd"><svg t="1697624206505" class="icon" viewBox="0 0 1024 1024" version="1.1" xmlns="http://www.w3.org/2000/svg" p-id="781" xmlns:xlink="http://www.w3.org/1999/xlink" width="200" height="200"><path d="M469.333333 268.8L426.666667 128H251.733333L213.333333 268.8l-85.333333-25.6 51.2-170.666667c8.533333-17.066667 25.6-29.866667 42.666667-29.866666h238.933333c17.066667 0 34.133333 12.8 42.666667 29.866666l51.2 170.666667-85.333334 25.6z" p-id="782"></path><path d="M917.333333 981.333333h-810.666666C46.933333 981.333333 0 934.4 0 874.666667v-554.666667C0 260.266667 46.933333 213.333333 106.666667 213.333333h810.666666C977.066667 213.333333 1024 260.266667 1024 320v554.666667c0 59.733333-46.933333 106.666667-106.666667 106.666666zM106.666667 298.666667c-12.8 0-21.333333 8.533333-21.333334 21.333333v554.666667c0 12.8 8.533333 21.333333 21.333334 21.333333h810.666666c12.8 0 21.333333-8.533333 21.333334-21.333333v-554.666667c0-12.8-8.533333-21.333333-21.333334-21.333333h-810.666666zM853.333333 170.666667h-170.666666c-25.6" p-id="783"></path><path d="M302.933333 789.333333h-25.6c-17.066667 0-34.133333-12.8-34.133333-34.133333s17.066667-29.866667 34.133333-29.866667h25.6c76.8 0 145.066667-55.466667 157.866667-132.266666 17.066667-106.666667 110.933333-187.733333 221.866667-187.733334h68.266666c17.066667 0 34.133333 12.8 34.133334 34.133334s-21.333333 29.866667-38.4 29.866666h-68.266667c-76.8 0-145.066667 55.466667-157.866667 132.266667-17.066667 110.933333-110.933333 187.733333-217.6 187.733333z" p-id="784"></path><path d="M691.2 520.533333c-8.533333 0-17.066667-4.266667-21.333333-8.533333-12.8-12.8-12.8-34.133333 0-46.933333l29.866666-29.866667-29.866666-29.866667c-12.8-12.8-12.8-34.133333 0-46.933333s34.133333-12.8 46.933333 0L768 413.866667c12.8 12.8 12.8 34.133333 0 46.933333L716.8 512c-8.533333 8.533333-17.066667 8.533333-25.6 8.533333zM746.666667 789.333333h-68.266667c-110.933333 0-200.533333-76.8-221.866667-187.733333-8.533333-76.8-76.8-132.266667-153.6-132.266667h-25.6c-17.066667 0-34.133333-12.8-34.133333-34.133333s12.8-34.133333 34.133333-34.133333h25.6c110.933333 0 200.533333 76.8 221.866667 187.733333 12.8 76.8 81.066667 132.266667 157.866667 132.266667h68.266666c17.066667 0 34.133333 12.8 34.133334 34.133333s-21.333333 34.133333-38.4 34.133333z" p-id="785"></path><path d="M691.2 844.8c-8.533333 0-17.066667-4.266667-21.333333-8.533333-12.8-12.8-12.8-34.133333 0-46.933334l29.866666-29.866666-29.866666-34.133334c-12.8-12.8-12.8-34.133333 0-46.933333s34.133333-12.8 46.933333 0l51.2 51.2c12.8 12.8 12.8 34.133333 0 46.933333l-51.2 51.2c-8.533333 12.8-17.066667 17.066667-25.6 17.066667z" p-id="786"></path></svg>