<?xml version="1.0" standalone="no"?><!DOCTYPE svg PUBLIC "-//W3C//DTD SVG 1.1//EN" "http://www.w3.org/Graphics/SVG/1.1/DTD/svg11.dtd"><svg t="1739421710408" class="icon" viewBox="0 0 1024 1024" version="1.1" xmlns="http://www.w3.org/2000/svg" p-id="3109" xmlns:xlink="http://www.w3.org/1999/xlink" width="32" height="32"><path d="M426.666667 245.333333a32 32 0 0 1 32-32h362.666666a32 32 0 0 1 0 64h-362.666666a32 32 0 0 1-32-32zM179.2 351.573333a32 32 0 0 1 45.226667-1.706666l149.333333 138.666666a32 32 0 0 1 0 46.933334l-149.333333 138.666666a32 32 0 0 1-43.52-46.933333L304.981333 512 180.906667 396.8a32 32 0 0 1-1.706667-45.226667zM554.666667 416a32 32 0 0 1 32-32h234.666666a32 32 0 0 1 0 64h-234.666666a32 32 0 0 1-32-32z m0 192a32 32 0 0 1 32-32h234.666666a32 32 0 0 1 0 64h-234.666666a32 32 0 0 1-32-32z m-128 170.666667a32 32 0 0 1 32-32h362.666666a32 32 0 0 1 0 64h-362.666666a32 32 0 0 1-32-32z" fill="#515151" p-id="3110"></path></svg>