<?xml version="1.0" standalone="no"?><!DOCTYPE svg PUBLIC "-//W3C//DTD SVG 1.1//EN" "http://www.w3.org/Graphics/SVG/1.1/DTD/svg11.dtd"><svg t="1739423248293" class="icon" viewBox="0 0 1024 1024" version="1.1" xmlns="http://www.w3.org/2000/svg" p-id="199567" xmlns:xlink="http://www.w3.org/1999/xlink" width="32" height="32"><path d="M362.644 55.263H172.292c-61.043 0-110.527 49.485-110.527 110.527v190.714c0 61.042 49.484 110.527 110.527 110.527h301.24V165.79c0-61.042-49.845-110.527-110.888-110.527z m40.816 279.569v62.487H204.439c-40.455 0-72.962-32.869-72.962-72.962V198.298c0-40.454 32.869-72.962 72.962-72.962h126.058c40.455 0 72.963 32.87 72.963 72.962v136.534zM855.681 467.03c61.043 0 110.527-49.484 110.527-110.526V165.79c0-61.042-49.484-110.527-110.527-110.527H664.968c-61.043 0-110.527 49.485-110.527 110.527v301.241h301.24zM624.514 334.833V198.298c0-40.454 32.869-72.962 72.962-72.962h126.058c40.455 0 72.963 32.87 72.963 72.962v126.059c0 40.454-32.87 72.962-72.963 72.962h-199.02v-62.487zM172.292 548.3c-61.043 0-110.527 49.485-110.527 110.528V849.54c0 61.042 49.484 110.527 110.527 110.527h190.713c61.043 0 110.527-49.485 110.527-110.527V548.3h-301.24zM403.46 680.5v136.894c0 40.454-32.87 72.962-72.963 72.962H204.44c-40.455 0-72.962-32.869-72.962-72.962V691.335c0-40.454 32.869-72.962 72.962-72.962H403.46V680.5zM855.681 548.3h-301.24v301.241c0 61.042 49.484 110.527 110.527 110.527H855.68c61.043 0 110.527-49.485 110.527-110.527V658.828c0.361-61.043-49.484-110.527-110.527-110.527z m40.816 268.733c0 40.454-32.87 72.962-72.963 72.962H697.476c-40.454 0-72.962-32.87-72.962-72.962V618.012h199.02c40.455 0 72.963 32.87 72.963 72.962v126.059z" fill="#515151" p-id="199568"></path></svg>