<?xml version="1.0" standalone="no"?><!DOCTYPE svg PUBLIC "-//W3C//DTD SVG 1.1//EN" "http://www.w3.org/Graphics/SVG/1.1/DTD/svg11.dtd"><svg t="1738984766125" class="icon" viewBox="0 0 1024 1024" version="1.1" xmlns="http://www.w3.org/2000/svg" p-id="60503" xmlns:xlink="http://www.w3.org/1999/xlink" width="32" height="32"><path d="M199.9872 740.5568a64 64 0 1 1 64 110.848 64 64 0 0 1-64-110.848z m713.5232 19.456c3.584 0 6.5024 3.584 6.5024 7.9872v56.0128c0 4.4032-2.9184 7.9872-6.5024 7.9872H440.4736c-3.584 0-6.4512-3.584-6.4512-7.9872V768c0-4.4032 2.9184-7.9872 6.4512-7.9872zM199.9872 456.5504a64 64 0 1 1 64 110.8992 64 64 0 0 1-64-110.8992z m713.5232 19.456c3.584 0 6.5024 3.584 6.5024 7.9872v56.0128c0 4.4032-2.9184 7.9872-6.5024 7.9872H440.4736c-3.584 0-6.4512-3.584-6.4512-7.9872V483.9936c0-4.4032 2.9184-7.9872 6.4512-7.9872zM403.968 103.936c6.5024 0 10.2912 7.424 6.5024 12.6976L245.4016 345.3952a15.872 15.872 0 0 1-25.8048 0l-114.0736-158.208a8.0384 8.0384 0 0 1 6.5024-12.6976H166.912c5.12 0 9.8816 2.4064 12.9024 6.656l52.7872 73.0624 103.6288-143.7184a15.6672 15.6672 0 0 1 12.8-6.5024z m509.5936 88.0128c3.584 0 6.5024 3.584 6.5024 7.9872V256c0 4.4032-2.9184 7.9872-6.5024 7.9872H440.4736c-3.584 0-6.4512-3.584-6.4512-7.9872V199.9872c0-4.4032 2.9184-7.9872 6.4512-7.9872z" p-id="60504" fill="#707070"></path></svg>