<svg width="1024" height="1024" xmlns="http://www.w3.org/2000/svg" t="1739422000890" class="icon" version="1.1" p-id="175831">
 <g>
  <title>Layer 1</title>
  <path d="m950.85714,73.14286l0,877.71428a73.14286,73.14286 0 0 1 -73.14285,73.14286l-731.42858,0a73.14286,73.14286 0 0 1 -73.14285,-73.14286l0,-877.71428a73.14286,73.14286 0 0 1 73.14285,-73.14286l731.42858,0a73.14286,73.14286 0 0 1 73.14285,73.14286zm-804.57143,658.28571l0,219.42857l731.42858,0l0,-219.42857l-731.42858,0zm621.71429,73.14286l0,73.14286l-73.14286,0l0,-73.14286l73.14286,0zm-621.71429,-146.28572l731.42858,0l0,-585.14285l-731.42858,0l0,585.14285z" fill="#515151" fill-opacity="0.85" p-id="175832" id="svg_1"/>
 </g>

</svg>