<?xml version="1.0" standalone="no"?><!DOCTYPE svg PUBLIC "-//W3C//DTD SVG 1.1//EN" "http://www.w3.org/Graphics/SVG/1.1/DTD/svg11.dtd"><svg t="1739422000890" class="icon" viewBox="0 0 1024 1024" version="1.1" xmlns="http://www.w3.org/2000/svg" p-id="175831" xmlns:xlink="http://www.w3.org/1999/xlink" width="32" height="32"><path d="M950.857143 73.142857v877.714286a73.142857 73.142857 0 0 1-73.142857 73.142857H146.285714a73.142857 73.142857 0 0 1-73.142857-73.142857V73.142857a73.142857 73.142857 0 0 1 73.142857-73.142857h731.428572a73.142857 73.142857 0 0 1 73.142857 73.142857zM146.285714 731.428571v219.428572h731.428572v-219.428572H146.285714z m182.857143 73.142858v73.142857h-73.142857v-73.142857h73.142857z m146.285714 0v73.142857h-73.142857v-73.142857h73.142857z m146.285715 0v73.142857h-73.142857v-73.142857h73.142857z m146.285714 0v73.142857h-73.142857v-73.142857h73.142857zM146.285714 658.285714h731.428572V73.142857H146.285714v585.142857z" fill="#515151" fill-opacity=".85" p-id="175832"></path></svg>