<?xml version="1.0" standalone="no"?><!DOCTYPE svg PUBLIC "-//W3C//DTD SVG 1.1//EN" "http://www.w3.org/Graphics/SVG/1.1/DTD/svg11.dtd"><svg t="1739499535373" class="icon" viewBox="0 0 1024 1024" version="1.1" xmlns="http://www.w3.org/2000/svg" p-id="204123" xmlns:xlink="http://www.w3.org/1999/xlink" width="32" height="32"><path d="M686.378667 85.333333a117.333333 117.333333 0 0 0-82.986667 34.368l-8.32 8.298667h-122.026667a117.333333 117.333333 0 0 0-82.986666 34.368L34.346667 518.08c-45.546667 45.546667-45.546667 120.362667 0 165.909333l220.288 220.352c45.568 45.546667 120.405333 45.546667 165.973333 0l45.013333-45.056 2.346667 2.389334c45.568 45.546667 120.405333 45.546667 165.973333 0L989.653333 505.962667a117.376 117.376 0 0 0 34.368-82.965334V181.333333C1024 128.704 980.650667 85.333333 928 85.333333H686.378667z m0 64H928a31.573333 31.573333 0 0 1 32.042667 32v241.664c0 14.122667-5.653333 27.712-15.658667 37.717334L588.714667 816.384a52.864 52.864 0 0 1-75.413334 0L292.949333 596.053333a52.864 52.864 0 0 1 0-75.413333L648.661333 164.949333A53.226667 53.226667 0 0 1 686.378667 149.333333z m-213.333334 42.666667h58.026667L247.722667 475.413333c-45.546667 45.546667-45.546667 120.362667 0 165.909334l172.672 172.714666-45.013334 45.013334a52.864 52.864 0 0 1-75.392 0L79.616 638.72a52.864 52.864 0 0 1 0-75.413333L435.328 207.616A53.226667 53.226667 0 0 1 473.045333 192zM832 213.333333a64 64 0 0 0 0 128 64 64 0 0 0 0-128z" p-id="204124" fill="#515151"></path></svg>