<?xml version="1.0" standalone="no"?><!DOCTYPE svg PUBLIC "-//W3C//DTD SVG 1.1//EN" "http://www.w3.org/Graphics/SVG/1.1/DTD/svg11.dtd"><svg t="1739196432546" class="icon" viewBox="0 0 1024 1024" version="1.1" xmlns="http://www.w3.org/2000/svg" p-id="34636" xmlns:xlink="http://www.w3.org/1999/xlink" width="200" height="200"><path d="M714.24 108.8h-64v113.28h64z m-88.96 30.72H394.24v64h231.04z m113.92 0v64H832v657.92H192V206.08h88.32v-64H176c-40.32 0-57.6 19.84-57.6 53.76V870.4c0 42.24 25.6 55.04 57.6 55.04h661.12c54.4 0 64-30.72 64-60.16V192c0-34.56-14.72-53.76-57.6-53.76zM369.28 108.8h-64v113.28h64z m108.16 180.48H263.04v214.4h214.4zM418.56 448H320V346.24h98.56z m339.84-158.72H528.64v58.24h229.76z m0 135.04H528.64v56.96h229.76zM477.44 576H263.04v214.4h214.4z m-58.88 158.72H320V630.4h98.56zM758.4 576H528.64v57.6h229.76z m-229.76 192h229.76v-57.6H528.64z" fill="#515151" p-id="34637"></path></svg>