<?xml version="1.0" standalone="no"?><!DOCTYPE svg PUBLIC "-//W3C//DTD SVG 1.1//EN" "http://www.w3.org/Graphics/SVG/1.1/DTD/svg11.dtd"><svg t="1739174513460" class="icon" viewBox="0 0 1024 1024" version="1.1" xmlns="http://www.w3.org/2000/svg" p-id="19075" xmlns:xlink="http://www.w3.org/1999/xlink" width="32" height="32"><path d="M682.666667 298.666667H341.333333a42.666667 42.666667 0 0 0 0 85.333333h128v298.666667a42.666667 42.666667 0 0 0 85.333334 0V384h128a42.666667 42.666667 0 0 0 0-85.333333z" fill="#515151" p-id="19076"></path><path d="M725.333333 85.333333H298.666667a213.333333 213.333333 0 0 0-213.333334 213.333334v426.666666a213.333333 213.333333 0 0 0 213.333334 213.333334h426.666666a213.333333 213.333333 0 0 0 213.333334-213.333334V298.666667a213.333333 213.333333 0 0 0-213.333334-213.333334z m128 640a128 128 0 0 1-128 128H298.666667a128 128 0 0 1-128-128V298.666667a128 128 0 0 1 128-128h426.666666a128 128 0 0 1 128 128z" fill="#515151" p-id="19077"></path></svg>