<?xml version="1.0" standalone="no"?><!DOCTYPE svg PUBLIC "-//W3C//DTD SVG 1.1//EN" "http://www.w3.org/Graphics/SVG/1.1/DTD/svg11.dtd"><svg t="1738985012153" class="icon" viewBox="0 0 1024 1024" version="1.1" xmlns="http://www.w3.org/2000/svg" p-id="69839" xmlns:xlink="http://www.w3.org/1999/xlink" width="32" height="32"><path d="M228.22952967 127.99999998q-19.806576 0-38.622824 7.922631t-33.176016 22.282398Q142.07092167 172.56479698 134.14829167 191.38104398t-7.922631 39.613153v571.419729q0 20.796905 7.922631 39.613153t22.282398 33.176016Q170.79045767 889.56286298 189.60670567 897.48549298t38.622824 7.922631h572.410058q19.806576 0 38.622824-7.922631t33.176015-22.282398Q886.79819467 860.84332698 894.72082567 842.02707898t7.92263-39.613153V230.99419698q0-20.796905-7.92263-39.613153t-22.282399-33.176015Q858.07865867 143.84526098 839.26241167 135.92263098t-38.622824-7.922631H228.22952967z m572.410058 58.4294q17.825919 0 31.195358 12.874275T845.20438467 230.99419698v571.419729q0 18.816248-13.369439 31.690523T800.63958767 846.97872298H228.22952967q-17.825919 0-31.195358-12.874274T183.66473267 802.41392598V230.99419698q0-18.816248 13.369439-31.690522T228.22952967 186.42939998h572.410058zM270.81366867 290.41392598z m28.719536 0q-28.719536 0-28.719536 28.719536 0 29.709865 28.719536 29.709865h163.404255q29.709865 0 29.709865-29.709865 0-28.719536-29.709865-28.719536H299.53320467z m-28.719536 115.868472z m28.719536 0q-28.719536 0-28.719536 28.719536 0 29.709865 28.719536 29.709865h351.566731q28.719536 0 28.719536-29.709865 0-28.719536-28.719536-28.719536H299.53320467z m482.290135 269.36944q0-11.883946-10.398452-15.845262t-18.321084 3.961316l-78.235976 78.235976q-7.922631 7.922631-3.961316 18.321084t15.845261 10.398452h78.235977q6.932302 0 11.883946-4.951644t4.951644-11.883946v-78.235976z" fill="#515151" p-id="69840"></path></svg>